<?xml version="1.0" encoding="utf-8"?>
<!-- Generator: Adobe Illustrator 24.1.2, SVG Export Plug-In . SVG Version: 6.00 Build 0)  -->
<svg version="1.1" id="Capa_1" xmlns="http://www.w3.org/2000/svg" xmlns:xlink="http://www.w3.org/1999/xlink" x="0px" y="0px"
	 viewBox="0 0 313 313" style="enable-background:new 0 0 313 313;" xml:space="preserve">
<style type="text/css">
	.st0{fill:#FFFFFF;}
</style>
<g>
	<g>
		<path class="st0" d="M294.5,171.4c-2.8-0.7-5.6,0-8.1,1.8c-9.1,7.7-19.7,14.1-31.3,18.3c-10.9,4.2-22.8,6.3-35.5,6.3
			c-28.5,0-54.5-11.6-73.1-30.2s-30.2-44.6-30.2-73.1c0-11.9,2.1-23.5,5.6-34.1c3.9-11.2,9.5-21.4,16.9-30.2
			c3.2-3.9,2.5-9.5-1.4-12.7c-2.5-1.8-5.3-2.5-8.1-1.8c-29.9,8.1-55.9,26-74.5,49.9C36.9,89.2,26,118.3,26,150.3
			c0,38.3,15.5,73.1,40.8,98.4s60.1,40.8,98.4,40.8c32.3,0,62.2-11.2,86.1-29.9c24.2-19,41.8-46,49.2-77
			C302.2,177.4,299.4,172.5,294.5,171.4z M240.7,244.9c-20.4,16.2-46.4,26-74.9,26c-33.4,0-63.6-13.7-85.4-35.5S45,183.4,45,150
			c0-27.8,9.1-53.1,25-73.5c10.9-14.1,24.6-25.7,40.4-33.7c-1.8,3.9-3.5,7.7-4.9,11.9c-4.6,12.7-6.7,26-6.7,40.1
			c0,33.4,13.7,64,35.5,85.8S186.6,216,220,216c14.8,0,28.8-2.5,41.8-7.4c4.6-1.8,9.1-3.5,13.4-5.6
			C266.7,219.2,255.1,233.6,240.7,244.9z"/>
	</g>
</g>
</svg>
