<?xml version="1.0" encoding="utf-8"?>
<!-- Generator: Adobe Illustrator 24.0.2, SVG Export Plug-In . SVG Version: 6.00 Build 0)  -->
<svg version="1.1" id="Layer_1" xmlns="http://www.w3.org/2000/svg" xmlns:xlink="http://www.w3.org/1999/xlink" x="0px" y="0px"
	 viewBox="0 0 771.2 228" style="enable-background:new 0 0 771.2 228;" xml:space="preserve">
<style type="text/css">
	.st0{fill:#1ABC9C;}
	.st1{fill:#2C3E50;}
</style>
<title>Asset 1</title>
<g>
	<path class="st0" d="M106,123.3c0,5.3-0.7,10.3-2,15.2c-1.4,4.9-3.3,9.4-5.8,13.7c-2.5,4.2-5.5,8.1-8.9,11.6
		c-3.5,3.5-7.3,6.5-11.6,9c-4.3,2.5-8.8,4.4-13.7,5.8s-9.9,2-15.2,2H14.2V66h34.5c5.3,0,10.3,0.7,15.2,2s9.4,3.3,13.7,5.8
		c4.3,2.5,8.1,5.5,11.6,9c3.5,3.5,6.4,7.4,8.9,11.6c2.5,4.2,4.4,8.8,5.8,13.7C105.3,112.9,106,118,106,123.3z M83.1,123.3
		c0-4.7-0.9-9.2-2.7-13.3c-1.8-4.2-4.2-7.8-7.4-10.9c-3.1-3.1-6.8-5.6-10.9-7.4c-4.2-1.8-8.6-2.7-13.4-2.7H37.3v68.7h11.4
		c4.7,0,9.2-0.9,13.4-2.7c4.2-1.8,7.8-4.2,10.9-7.4c3.1-3.1,5.6-6.8,7.4-10.9C82.2,132.5,83.1,128,83.1,123.3z"/>
	<path class="st0" d="M144.1,180.5h-22.9V66h22.9v57.3L186.8,66h26l-36.2,48.3l36.2,66.2h-26l-25.2-46.3l-17.5,23.4V180.5z"/>
	<path class="st1" d="M311.2,168.8c-5.3,4.6-11.3,8.1-17.9,10.5c-6.6,2.4-13.5,3.7-20.5,3.7c-5.4,0-10.7-0.7-15.7-2.1
		c-5-1.4-9.7-3.4-14.1-6c-4.4-2.6-8.4-5.7-12-9.3c-3.6-3.6-6.7-7.6-9.3-12c-2.6-4.4-4.6-9.1-6-14.1c-1.4-5-2.1-10.3-2.1-15.7
		c0-5.4,0.7-10.7,2.1-15.7c1.4-5.1,3.4-9.8,6-14.2c2.6-4.4,5.7-8.4,9.3-12c3.6-3.6,7.6-6.7,12-9.3c4.4-2.6,9.1-4.6,14.1-6
		c5-1.4,10.3-2.1,15.7-2.1c7.1,0,13.9,1.2,20.5,3.6c6.6,2.4,12.6,6,17.9,10.6l-12.1,20c-3.4-3.6-7.3-6.4-11.9-8.3
		c-4.6-1.9-9.4-2.9-14.4-2.9c-5.1,0-9.8,1-14.2,2.9c-4.4,1.9-8.3,4.5-11.6,7.8c-3.3,3.3-5.9,7.1-7.8,11.6c-1.9,4.4-2.9,9.2-2.9,14.2
		c0,5,1,9.7,2.9,14.1c1.9,4.4,4.5,8.2,7.8,11.5c3.3,3.3,7.2,5.9,11.6,7.8c4.4,1.9,9.2,2.9,14.2,2.9c5,0,9.8-1,14.4-2.9
		c4.6-1.9,8.5-4.7,11.9-8.3L311.2,168.8z"/>
	<path class="st1" d="M401.9,137c0,6.4-1.1,12.3-3.4,17.9s-5.4,10.3-9.3,14.3c-3.9,4-8.6,7.2-13.9,9.5c-5.3,2.3-11,3.5-17.1,3.5
		c-6,0-11.7-1.2-17-3.5c-5.3-2.3-9.9-5.5-13.9-9.5c-4-4-7.1-8.8-9.4-14.3c-2.3-5.5-3.4-11.5-3.4-17.9c0-6.5,1.1-12.5,3.4-18.1
		c2.3-5.5,5.4-10.3,9.4-14.3c4-4,8.6-7.2,13.9-9.5c5.3-2.3,11-3.4,17-3.4c6.1,0,11.8,1.1,17.1,3.2c5.3,2.2,9.9,5.2,13.9,9.2
		c3.9,4,7.1,8.7,9.3,14.3C400.7,124,401.9,130.2,401.9,137z M379.9,137c0-3.5-0.6-6.7-1.7-9.5c-1.1-2.8-2.7-5.3-4.7-7.4
		c-2-2-4.3-3.6-6.9-4.7c-2.6-1.1-5.4-1.6-8.4-1.6c-3,0-5.8,0.5-8.4,1.6s-4.9,2.7-6.9,4.7c-1.9,2.1-3.5,4.5-4.6,7.4
		c-1.1,2.8-1.7,6-1.7,9.5c0,3.3,0.6,6.4,1.7,9.2c1.1,2.8,2.6,5.3,4.6,7.4c1.9,2.1,4.2,3.7,6.9,4.9c2.6,1.2,5.4,1.8,8.4,1.8
		c3,0,5.8-0.6,8.4-1.7c2.6-1.1,4.9-2.7,6.9-4.7c2-2,3.5-4.5,4.7-7.4C379.3,143.6,379.9,140.5,379.9,137z"/>
	<path class="st1" d="M435.7,180.5h-21.8V95h5.3l7.2,8.3c3.5-3.2,7.5-5.7,11.9-7.4c4.4-1.7,9.1-2.6,13.9-2.6c5.2,0,10.1,1,14.8,3
		c4.6,2,8.7,4.7,12.1,8.2c3.5,3.5,6.2,7.6,8.2,12.2c2,4.7,3,9.6,3,14.9v48.9h-21.8v-48.9c0-2.2-0.4-4.4-1.3-6.4
		c-0.9-2-2-3.7-3.5-5.2s-3.2-2.7-5.2-3.5c-2-0.9-4.1-1.3-6.3-1.3c-2.3,0-4.4,0.4-6.5,1.3c-2,0.9-3.8,2-5.3,3.5s-2.7,3.2-3.5,5.2
		c-0.9,2-1.3,4.1-1.3,6.4V180.5z"/>
	<path class="st1" d="M547.7,180.5c-5.3,0-10.2-1-14.9-3c-4.6-2-8.7-4.7-12.2-8.2c-3.5-3.5-6.2-7.5-8.2-12.2c-2-4.6-3-9.6-3-14.9
		v-25.4h-10.6V95.1h10.6V60.9h21.7v34.2h33.1v21.7h-33.1v25.4c0,2.3,0.4,4.4,1.3,6.4c0.9,2,2,3.7,3.5,5.2c1.5,1.5,3.2,2.7,5.3,3.6
		c2,0.9,4.2,1.3,6.5,1.3h16.5v21.7H547.7z"/>
	<path class="st1" d="M598.2,180.5h-21.8V95h5.3l7.2,10.1c3.5-3.2,7.5-5.7,12-7.4c4.5-1.7,9.1-2.6,13.9-2.6H634v21.7h-19.3
		c-2.3,0-4.4,0.4-6.5,1.3c-2,0.9-3.8,2-5.3,3.5c-1.5,1.5-2.7,3.3-3.5,5.3c-0.9,2-1.3,4.2-1.3,6.5V180.5z"/>
	<path class="st1" d="M725.3,137c0,6.4-1.1,12.3-3.4,17.9s-5.4,10.3-9.3,14.3c-3.9,4-8.6,7.2-13.9,9.5c-5.3,2.3-11,3.5-17.1,3.5
		c-6,0-11.7-1.2-17-3.5c-5.3-2.3-9.9-5.5-13.9-9.5c-4-4-7.1-8.8-9.4-14.3c-2.3-5.5-3.4-11.5-3.4-17.9c0-6.5,1.1-12.5,3.4-18.1
		c2.3-5.5,5.4-10.3,9.4-14.3c4-4,8.6-7.2,13.9-9.5c5.3-2.3,11-3.4,17-3.4c6.1,0,11.8,1.1,17.1,3.2s9.9,5.2,13.9,9.2
		c3.9,4,7.1,8.7,9.3,14.3C724.1,124,725.3,130.2,725.3,137z M703.3,137c0-3.5-0.6-6.7-1.7-9.5c-1.1-2.8-2.7-5.3-4.7-7.4
		c-2-2-4.3-3.6-6.9-4.7c-2.6-1.1-5.4-1.6-8.4-1.6c-3,0-5.8,0.5-8.4,1.6s-4.9,2.7-6.9,4.7c-1.9,2.1-3.5,4.5-4.6,7.4
		c-1.1,2.8-1.7,6-1.7,9.5c0,3.3,0.6,6.4,1.7,9.2c1.1,2.8,2.6,5.3,4.6,7.4c1.9,2.1,4.2,3.7,6.9,4.9c2.6,1.2,5.4,1.8,8.4,1.8
		c3,0,5.8-0.6,8.4-1.7c2.6-1.1,4.9-2.7,6.9-4.7c2-2,3.5-4.5,4.7-7.4C702.7,143.6,703.3,140.5,703.3,137z"/>
	<path class="st1" d="M759.3,180.5h-22V60.9h22V180.5z"/>
</g>
</svg>
