<?xml version="1.0" encoding="utf-8"?>
<!-- Generator: Adobe Illustrator 24.0.2, SVG Export Plug-In . SVG Version: 6.00 Build 0)  -->
<svg version="1.1" id="Layer_1" xmlns="http://www.w3.org/2000/svg" xmlns:xlink="http://www.w3.org/1999/xlink" x="0px" y="0px"
	 viewBox="0 0 771.2 228" style="enable-background:new 0 0 771.2 228;" xml:space="preserve">
<style type="text/css">
	.st0{fill:#3498DB;}
	.st1{fill:#FFFFFF;}
</style>
<path class="st0" d="M240,209.7H26c-12.7,0-23-10.3-23-23v-146c0-12.7,10.3-23,23-23h214c12.7,0,23,10.3,23,23v146
	C263,199.4,252.7,209.7,240,209.7z"/>
<title>Asset 1</title>
<g>
	<path class="st1" d="M47.8,62.6H62v101.6H47.8V62.6z M57.5,150.7h23c7.5,0,13.3-1.9,17.4-5.8s6.1-9.3,6.1-16.5V98.5
		c0-7.1-2-12.5-6.1-16.5s-9.9-5.8-17.4-5.8h-23V62.6H80c8.2,0,15.2,1.4,20.9,4.3c5.6,2.7,10.2,7,13.2,12.5s4.5,12,4.5,19.7v28.8
		c0,7.7-1.5,14.2-4.5,19.7c-3,5.4-7.7,9.8-13.2,12.5c-5.8,2.9-12.8,4.3-21,4.3H57.5V150.7z"/>
	<path class="st1" d="M140.3,62.6h14.2v101.6h-14.2V62.6z M151.5,119.6l44.9-57h17.5L149.4,141L151.5,119.6z M168.5,110l11.3-10.4
		l38.5,64.7h-17.5L168.5,110z"/>
</g>
<g>
	<path class="st0" d="M313.7,164.9c-5.5-3.2-10-8-12.8-13.8c-3-5.9-4.5-12.8-4.5-20.6v-28.8c0-7.8,1.5-14.6,4.5-20.6
		c2.9-5.7,7.3-10.5,12.8-13.8c5.8-3.3,12.5-5.1,19.2-4.9c5.7-0.1,11.5,1.3,16.6,3.8c5.1,2.6,9.4,6.4,12.7,11
		c3.5,4.9,5.8,10.5,6.9,16.4H354c-0.9-3.2-2.4-6.2-4.6-8.8c-2.1-2.5-4.6-4.5-7.6-5.9c-6.4-3.1-14.1-2.7-20.2,1
		c-3.3,2.1-5.9,5.1-7.5,8.7c-1.8,4.1-2.8,8.5-2.7,13.1v28.8c-0.1,4.5,0.8,9,2.7,13c1.7,3.6,4.2,6.6,7.5,8.7c3.4,2.1,7.3,3.1,11.3,3
		c3.1,0,6.2-0.7,9-1.9c2.9-1.3,5.5-3.3,7.5-5.7c2.2-2.6,3.7-5.7,4.6-9.1h15.1c-1,5.9-3.5,11.5-7,16.4c-3.3,4.6-7.7,8.4-12.7,11
		c-5.1,2.6-10.8,3.9-16.5,3.8C326.2,169.8,319.5,168.2,313.7,164.9z"/>
	<path class="st0" d="M400.7,165.9c-4.6-2.5-8.3-6.4-10.6-11.2c-2.4-4.9-3.7-10.8-3.7-17.7v-12.2c0-6.8,1.2-12.6,3.7-17.4
		c2.3-4.7,6-8.5,10.6-11.1c4.6-2.5,10.2-3.8,16.7-3.8c6.4,0,12,1.2,16.7,3.8c4.6,2.5,8.3,6.4,10.6,11.1c2.4,4.8,3.7,10.6,3.7,17.4
		v12.5c0,6.9-1.2,12.7-3.7,17.5c-2.3,4.7-6,8.6-10.6,11.1s-10.2,3.8-16.7,3.8C410.9,169.7,405.3,168.4,400.7,165.9z M429.3,150.8
		c2.8-3.2,4.3-7.7,4.3-13.6v-12.5c0-5.8-1.4-10.3-4.3-13.5c-2.8-3.2-6.8-4.8-11.9-4.8s-9.1,1.6-11.9,4.8c-2.8,3.1-4.3,7.7-4.3,13.5
		v12.5c0,5.8,1.4,10.4,4.3,13.6c2.8,3.2,6.8,4.9,11.9,4.9S426.6,154.1,429.3,150.8z"/>
	<path class="st0" d="M469.3,93.5H484v75.1h-14.7V93.5z M514.8,123.1c0-5.3-1.4-9.4-4.1-12.3c-2.8-2.9-6.6-4.4-11.6-4.4
		c-4.8,0-8.5,1.3-11.1,3.8s-3.9,6.1-3.9,10.7l-1.6-14.5c2.1-4.2,5.2-7.8,9.1-10.4c3.7-2.4,8-3.7,12.4-3.7c8.1,0,14.5,2.7,18.9,8
		c4.4,5.3,6.7,12.9,6.7,22.6v45.5h-14.7L514.8,123.1z"/>
	<path class="st0" d="M546.2,93.5H580v13.3h-33.8V93.5z M558.1,163.9c-2.8-3.4-4.3-8.3-4.2-14.9V71.8h14.7v77.5
		c-0.1,1.5,0.3,3,1,4.3c0.8,1,1.9,1.6,3.2,1.5h7.1v14h-8.5C565.4,168.9,561,167.3,558.1,163.9z"/>
	<path class="st0" d="M600.3,93.5H615v75.1h-14.7V93.5z M636.7,107.7c-2.2-0.9-4.5-1.3-6.9-1.2c-4.7,0-8.3,1.3-10.9,3.8
		c-2.6,2.6-3.8,6.2-3.8,10.7l-1.6-14.5c2.1-4.2,5.1-7.7,9-10.4c3.6-2.4,7.8-3.7,12.1-3.7c3.1,0,6.3,0.4,9.3,1.5
		c2.7,1,5.1,2.4,7.2,4.4l-9.6,13C640.2,109.7,638.6,108.5,636.7,107.7z"/>
	<path class="st0" d="M674,165.9c-4.6-2.5-8.3-6.4-10.6-11.2c-2.4-4.9-3.7-10.8-3.7-17.7v-12.2c0-6.8,1.2-12.6,3.7-17.4
		c2.3-4.7,6-8.5,10.6-11.1s10.2-3.8,16.7-3.8s12,1.2,16.7,3.8c4.6,2.5,8.3,6.4,10.6,11.1c2.4,4.9,3.7,10.6,3.7,17.4v12.5
		c0,6.9-1.2,12.7-3.7,17.5c-2.3,4.7-6,8.6-10.6,11.1s-10.2,3.8-16.7,3.8C684.3,169.7,678.7,168.4,674,165.9z M702.7,150.8
		c2.8-3.2,4.2-7.7,4.2-13.6v-12.5c0-5.8-1.4-10.3-4.2-13.5s-6.8-4.8-11.9-4.8s-9.1,1.6-11.9,4.8c-2.8,3.1-4.3,7.7-4.2,13.5v12.5
		c0,5.8,1.4,10.4,4.2,13.6c2.8,3.2,6.8,4.9,11.9,4.9S699.9,154.1,702.7,150.8z"/>
	<path class="st0" d="M757.4,149.3c-0.1,1.5,0.3,3,1.2,4.3c0.8,1,2.1,1.6,3.4,1.5h7v14h-8.7c-5.6,0-9.9-1.7-13-5.2
		s-4.6-8.4-4.6-14.6V63.5h14.8L757.4,149.3L757.4,149.3z"/>
</g>
</svg>
